<svg width="8" height="6" viewBox="0 0 8 6" fill="none" xmlns="http://www.w3.org/2000/svg">
<path d="M3.72601 5.52296C3.75659 5.56737 3.79751 5.60369 3.84524 5.62878C3.89297 5.65386 3.94609 5.66697 4.00001 5.66697C4.05393 5.66697 4.10705 5.65386 4.15478 5.62878C4.20251 5.60369 4.24343 5.56737 4.27401 5.52296L7.27401 1.18963C7.30873 1.13965 7.3291 1.0811 7.33289 1.02036C7.33668 0.959619 7.32375 0.899 7.29551 0.845091C7.26726 0.791181 7.22478 0.746042 7.17269 0.714579C7.12059 0.683115 7.06087 0.666531 7.00001 0.666626H1.00001C0.939291 0.666877 0.879789 0.683675 0.827903 0.715214C0.776017 0.746753 0.73371 0.791839 0.705532 0.845624C0.677354 0.899409 0.664371 0.959858 0.667979 1.02047C0.671587 1.08108 0.69165 1.13956 0.726009 1.18963L3.72601 5.52296Z" fill="black"/>
</svg>
