<svg width="17" height="17" viewBox="0 0 17 17" fill="none" xmlns="http://www.w3.org/2000/svg">
<path d="M13.2745 12.1552L16.6652 15.5451L15.545 16.6653L12.1551 13.2746C10.8938 14.2857 9.32491 14.8357 7.70833 14.8334C3.77533 14.8334 0.583328 11.6414 0.583328 7.70837C0.583328 3.77537 3.77533 0.583374 7.70833 0.583374C11.6413 0.583374 14.8333 3.77537 14.8333 7.70837C14.8356 9.32496 14.2857 10.8938 13.2745 12.1552ZM11.6865 11.5677C12.6912 10.5345 13.2523 9.14955 13.25 7.70837C13.25 4.64621 10.7697 2.16671 7.70833 2.16671C4.64616 2.16671 2.16666 4.64621 2.16666 7.70837C2.16666 10.7697 4.64616 13.25 7.70833 13.25C9.1495 13.2523 10.5345 12.6912 11.5677 11.6865L11.6865 11.5677Z" fill="black"/>
</svg>
